# Exported from Quest 3S
# Vertices: 72
# Triangles: 40
o room_scan
v -3.620882 -1.391376 -3.978318
v -4.573536 -1.391376 -3.688019
v -4.447176 -1.391376 -3.273349
v -3.49452 -1.391376 -3.563647
v 2.499582 2.109845 -5.846081
v 3.795224 2.109843 -1.583267
v 4.247797 2.109843 -1.721153
v 5.642985 2.109841 2.860286
v 5.187365 2.109842 2.999108
v 5.315739 2.109842 3.420466
v -2.834907 2.109844 5.846083
v -5.642984 2.109847 -3.364613
v 2.499582 2.109845 -5.846085
v -5.642983 2.109846 -3.36461
v -5.642983 -2.108155 -3.36461
v 2.499582 -2.108156 -5.846084
v 5.642986 2.109845 2.860286
v 4.247796 2.109845 -1.721153
v 4.247795 -2.108158 -1.721153
v 5.642985 -2.108158 2.860286
v 5.187367 2.109844 2.999106
v 5.642987 2.109844 2.860285
v 5.642987 -2.108157 2.860285
v 5.187367 -2.108157 2.999106
v -2.83491 2.109846 5.846082
v 5.315741 2.109845 3.420465
v 5.31574 -2.108156 3.420464
v -2.834911 -2.108155 5.846082
v 3.795224 2.109844 -1.583265
v 2.499582 2.109844 -5.846081
v 2.499581 -2.108157 -5.846081
v 3.795224 -2.108158 -1.583265
v -5.642984 2.109846 -3.364614
v -2.834905 2.109846 5.846083
v -2.834905 -2.108155 5.846083
v -5.642984 -2.108155 -3.364614
v -3.469928 -1.388552 2.212376
v -2.819493 -1.388552 4.347353
v -1.29793 -1.388552 3.8838
v -1.948364 -1.388552 1.748823
v 4.247795 2.109844 -1.721153
v 3.795224 2.109844 -1.583267
v 3.795224 -2.108157 -1.583267
v 4.247795 -2.108157 -1.721153
v 5.315739 2.109844 3.420466
v 5.187365 2.109844 2.999108
v 5.187364 -2.108157 2.999107
v 5.315739 -2.108157 3.420466
v -5.642987 -2.108155 -3.364613
v -2.83491 -2.108155 5.846084
v 5.315738 -2.108155 3.420466
v 5.187365 -2.108155 2.999108
v 5.642986 -2.108155 2.860285
v 4.247796 -2.108156 -1.721154
v 3.795224 -2.108156 -1.583268
v 2.499582 -2.108156 -5.846083
v 5.627453 0.8525181 2.8079
v 5.29656 0.8525181 1.721625
v 5.296558 -2.109067 1.721625
v 5.627451 -2.109068 2.8079
v 2.991373 -1.41712 -1.04692
v 2.547969 -1.41712 -2.505564
v 1.475494 -1.417119 -2.17955
v 1.918897 -1.417119 -0.7209053
v 0.3776939 0.0248394 4.890378
v 2.150151 0.0248394 4.362525
v 2.15015 -2.109848 4.362525
v 0.3776934 -2.109848 4.890378
v 3.3823 -1.537239 3.85138
v 4.035694 -1.537239 3.656909
v 3.858464 -1.537238 3.061442
v 3.205071 -1.537238 3.255912
vt 0.4979525 0.2167487
vt -0.4979515 0.2167482
vt -0.4979515 -0.2167473
vt 0.4979529 -0.2167473
vt -3.990831 4.842622
vt -4.01675 0.3873334
vt -4.489851 0.3904018
vt -4.5203 -4.39867
vt -4.04401 -4.401766
vt -4.046865 -4.842237
vt 4.457055 -4.842248
vt 4.521276 4.786775
vt 4.255996 2.109707
vt -4.256295 2.109707
vt -4.256295 -2.108294
vt 4.255996 -2.108294
vt 2.394588 2.108301
vt -2.394581 2.108301
vt -2.394581 -2.109701
vt 2.394588 -2.109701
vt 0.2381539 2.107813
vt -0.2381454 2.107813
vt -0.2381454 -2.110188
vt 0.2381539 -2.110188
vt 4.251557 2.108242
vt -4.252364 2.108242
vt -4.252364 -2.109759
vt 4.251557 -2.109759
vt 2.227529 2.109345
vt -2.227837 2.109345
vt -2.227837 -2.108657
vt 2.227529 -2.108657
vt 4.815148 2.110496
vt -4.81409 2.110496
vt -4.81409 -2.107504
vt 4.815148 -2.107504
vt 1.115929 0.7953045
vt -1.115929 0.7953045
vt -1.115929 -0.7953045
vt 1.115929 -0.7953045
vt 0.2365494 2.10884
vt -0.2365608 2.10884
vt -0.2365608 -2.109161
vt 0.2365494 -2.109161
vt 0.220237 2.107795
vt -0.220243 2.107795
vt -0.220243 -2.110206
vt 0.220237 -2.110206
vt 4.49171 -4.842032
vt 4.489914 4.787207
vt -4.013829 4.842325
vt -4.01383 4.401845
vt -4.49013 4.401835
vt -4.490729 -0.3873334
vt -4.017618 -0.3873317
vt -4.020583 -4.842696
vt 0.5677772 1.480793
vt -0.5677774 1.480793
vt -0.5677774 -1.480793
vt 0.5677772 -1.480793
vt 0.7622763 0.5604639
vt -0.7622726 0.5604672
vt -0.7622755 -0.5604644
vt 0.7622736 -0.5604687
vt 0.9246931 1.067343
vt -0.9246936 1.067343
vt -0.9246936 -1.067343
vt 0.9246931 -1.067343
vt 0.3408599 0.3106418
vt -0.3408594 0.3106413
vt -0.3408599 -0.3106408
vt 0.3408594 -0.3106413
vn -1.145014E-07 -1 3.489152E-08
vn -1.145014E-07 -1 3.489144E-08
vn -1.145014E-07 -1 3.489152E-08
vn -1.145013E-07 -1 3.48916E-08
vn 3.658642E-07 1 2.055471E-07
vn 2.884663E-07 1 2.245398E-07
vn 5.820746E-07 1 1.871957E-07
vn 1.073783E-06 1 8.932104E-08
vn 3.836588E-07 1 1.950476E-07
vn 2.681979E-07 1 -8.17114E-08
vn 3.60862E-07 1 1.998425E-07
vn 3.54528E-07 1 2.025342E-07
vn -0.2915167 -5.406899E-08 -0.9565658
vn -0.2915167 0 -0.9565657
vn -0.2915167 -5.406899E-08 -0.9565658
vn -0.2915167 -1.08138E-07 -0.9565658
vn 0.956625 -2.162893E-07 -0.291322
vn 0.956625 -2.162893E-07 -0.291322
vn 0.956625 -2.162893E-07 -0.291322
vn 0.956625 -2.162893E-07 -0.291322
vn 0.2914584 4.815615E-08 0.9565835
vn 0.2914584 4.815615E-08 0.9565835
vn 0.2914584 4.815615E-08 0.9565835
vn 0.2914584 4.815615E-08 0.9565835
vn 0.2852351 -9.157856E-08 0.9584576
vn 0.2852351 -1.186665E-07 0.9584576
vn 0.2852351 -9.157856E-08 0.9584576
vn 0.2852351 -6.44906E-08 0.9584576
vn 0.9567824 -1.081625E-07 -0.2908049
vn 0.9567824 -1.081625E-07 -0.2908049
vn 0.9567824 -1.081625E-07 -0.2908049
vn 0.9567824 -1.081625E-07 -0.2908049
vn -0.9565343 0 0.2916201
vn -0.9565343 0 0.2916201
vn -0.9565343 0 0.2916201
vn -0.9565343 0 0.2916201
vn -2.617756E-07 -1 -8.775741E-08
vn -2.617756E-07 -1 -8.775738E-08
vn -2.617756E-07 -1 -8.775741E-08
vn -2.617756E-07 -1 -8.775744E-08
vn -0.2914466 -2.11227E-08 -0.9565871
vn -0.2914466 -2.11227E-08 -0.9565871
vn -0.2914466 -2.11227E-08 -0.9565871
vn -0.2914466 -2.11227E-08 -0.9565871
vn 0.9565886 -1.539741E-07 -0.2914418
vn 0.9565887 -2.080444E-07 -0.2914414
vn 0.9565886 -1.539741E-07 -0.2914418
vn 0.9565884 -9.990379E-08 -0.2914424
vn -7.239569E-08 -1 1.251883E-07
vn -7.902299E-08 -1 1.276317E-07
vn -7.556556E-08 -1 1.220476E-07
vn 0 -1 0
vn -6.589137E-08 -1 1.18228E-07
vn -8.968841E-08 -1 1.378981E-07
vn -7.349281E-08 -1 1.359563E-07
vn -7.40435E-08 -1 1.413558E-07
vn 0.9566033 -4.620606E-07 -0.2913933
vn 0.9566033 -4.620606E-07 -0.2913933
vn 0.9566033 -4.620606E-07 -0.2913933
vn 0.9566033 -4.620606E-07 -0.2913933
vn -2.03502E-07 -1 6.186124E-08
vn -2.035021E-07 -1 6.186136E-08
vn -2.03502E-07 -1 6.186124E-08
vn -2.035019E-07 -1 6.186112E-08
vn 0.2854208 -6.375608E-08 0.9584023
vn 0.2854208 -6.375608E-08 0.9584023
vn 0.2854208 -6.375608E-08 0.9584023
vn 0.2854208 -6.375608E-08 0.9584023
vn -3.318059E-07 -1 -5.018275E-07
vn -3.318063E-07 -1 -5.018278E-07
vn -3.318059E-07 -1 -5.018275E-07
vn -3.318055E-07 -1 -5.018273E-07
f 1/1/1 4/4/4 3/3/3
f 3/3/3 2/2/2 1/1/1
f 5/5/5 12/12/12 11/11/11
f 11/11/11 10/10/10 9/9/9
f 5/5/5 11/11/11 9/9/9
f 9/9/9 8/8/8 7/7/7
f 9/9/9 7/7/7 6/6/6
f 9/9/9 6/6/6 5/5/5
f 13/13/13 16/16/16 15/15/15
f 15/15/15 14/14/14 13/13/13
f 17/17/17 20/20/20 19/19/19
f 19/19/19 18/18/18 17/17/17
f 21/21/21 24/24/24 23/23/23
f 23/23/23 22/22/22 21/21/21
f 25/25/25 28/28/28 27/27/27
f 27/27/27 26/26/26 25/25/25
f 29/29/29 32/32/32 31/31/31
f 31/31/31 30/30/30 29/29/29
f 33/33/33 36/36/36 35/35/35
f 35/35/35 34/34/34 33/33/33
f 37/37/37 40/40/40 39/39/39
f 39/39/39 38/38/38 37/37/37
f 41/41/41 44/44/44 43/43/43
f 43/43/43 42/42/42 41/41/41
f 45/45/45 48/48/48 47/47/47
f 47/47/47 46/46/46 45/45/45
f 49/49/49 56/56/56 55/55/55
f 55/55/55 54/54/54 53/53/53
f 49/49/49 55/55/55 53/53/53
f 49/49/49 53/53/53 52/52/52
f 49/49/49 52/52/52 51/51/51
f 51/51/51 50/50/50 49/49/49
f 57/57/57 60/60/60 59/59/59
f 59/59/59 58/58/58 57/57/57
f 61/61/61 64/64/64 63/63/63
f 63/63/63 62/62/62 61/61/61
f 65/65/65 68/68/68 67/67/67
f 67/67/67 66/66/66 65/65/65
f 69/69/69 72/72/72 71/71/71
f 71/71/71 70/70/70 69/69/69
